{"title":"Bob Marley - Legend [HD24/96] upmix DTS 5.1ch @1234kbps","uid":10532766,"size":764180043,"categoryP":"audio","categoryS":"flac","magnet":"?xt=urn:btih:f68773e184db4db0257d582703cf68d0705484bf&amp;dn=Bob+Marley+-+Legend+%5BHD24%2F96%5D+upmix+DTS+5.1ch+%401234kbps&amp;tr=udp%3A%2F%2Ftracker.openbittorrent.com%3A80&amp;tr=udp%3A%2F%2Fopen.demonii.com%3A1337&amp;tr=udp%3A%2F%2Ftracker.coppersurfer.tk%3A6969&amp;tr=udp%3A%2F%2Fexodus.desync.com%3A6969","seeders":3,"leechers":0,"uploader":"Astroyan","files":18,"time":1405125067,"description":"Upmix DTS 5.1ch @1234kbps\n\nThe audio source is the HDtracks master 2.0, encoded in PCM 24/96kHz\n\nThe upmix treatment was done with Audition CC in a professionnal studio.\n\n\n-----------------------------------------------------\n-----------------------------------------------------\n\nTorrent content:\n\n1 - Is This Love.wav\n2 - No Women, No Cry (Live).wav\n3 - Could You Be Loved.wav\n4 - Three Little Birds.wav\n5 - Buffalo Soldier.wav\n6 - Get Up, Stand Up.wav\n7 - Stir It Up.wav\n8 - Easy Skanking (Bonus Track).wav\n9 - One Love - People Get Ready.wav\n10 - I Shot The Sheriff.wav\n11 - Waiting In Vain.wav\n12 - Redemption Song.wav\n13 - Satisfy My Soul.wav\n14 - Exodus.wav\n15 - Jamming.wav\n16 - Punky Reggae Party (Bonus Track).wav\nfoo_dr source.txt\nfoo_dr upmix.txt\n\n*.wav files were encoded with DTS HD Encoder Suite @44.1kHz/1234kbps(Total stream Bitrate : 1411kbps)\n\n----------------------------------------------------------\nDynamic Range Analysis: Bob Marley &amp; the Wailers / Legend\n----------------------------------------------------------\n\nDR Peak RMS Duration Track\n--------------------------------------------------------------------------------\nDR13 -2.34 dB -17.64 dB 3:52 01-Is This Love\nDR14 -0.65 dB -17.22 dB 7:10 02-No Woman, No Cry (Live)\nDR14 -1.11 dB -16.53 dB 3:57 03-Could You Be Loved\nDR14 -1.03 dB -16.53 dB 3:01 04-Three Little Birds\nDR13 -1.13 dB -15.83 dB 4:18 05-Buffalo Soldier\nDR13 -4.42 dB -18.87 dB 3:18 06-Get Up, Stand Up\nDR13 -1.49 dB -16.11 dB 5:31 07-Stir It Up\nDR13 -1.42 dB -16.53 dB 2:55 08-Easy Skanking (Bonus Track)\nDR14 -3.21 dB -19.03 dB 2:52 09-One Love - People Get Ready\nDR13 -2.53 dB -17.56 dB 4:42 10-I Shot the Sheriff\nDR15 -0.52 dB -16.82 dB 4:12 11-Waiting In Vain\nDR13 -2.91 dB -19.66 dB 3:47 12-Redemption Song\nDR16 -1.74 dB -20.54 dB 4:32 13-Satisfy My Soul\nDR14 -1.03 dB -17.30 dB 7:41 14-Exodus\nDR14 -0.97 dB -16.12 dB 3:32 15-Jamming\nDR14 -0.75 dB -15.73 dB 6:53 16-Punky Reggae Party (Bonus Track)\n--------------------------------------------------------------------------------\n\nNumber of tracks: 16\nOfficial DR value: DR14\n\nSamplerate: 96000 Hz\nChannels: 2\nBits per sample: 24\nBitrate: 2901 kbps\nCodec: FLAC\n\n-----------------------------------------------------\n-----------------------------------------------------\n\nHow to use ?\n\nYou can play files on your computer with Foobar2000 with the plugin DTS.\n\nOr you can burn a CD-DTS like a CD-Audio simply by adding .wav files to the burn list of your burning software (Nero, EAC,...). The CD-DTS can only be played on a CD/DVD player connected to a home cinema amplifier via a digital connection (Optical Toslink, Coaxial or HDMI).","torrent":{"xt":"urn:btih:f68773e184db4db0257d582703cf68d0705484bf","amp;dn":"Bob+Marley+-+Legend+%5BHD24%2F96%5D+upmix+DTS+5.1ch+%401234kbps","amp;tr":["udp%3A%2F%2Ftracker.openbittorrent.com%3A80","udp%3A%2F%2Fopen.demonii.com%3A1337","udp%3A%2F%2Ftracker.coppersurfer.tk%3A6969","udp%3A%2F%2Fexodus.desync.com%3A6969"],"infoHash":"f68773e184db4db0257d582703cf68d0705484bf","infoHashBuffer":{"type":"Buffer","data":[246,135,115,225,132,219,77,176,37,125,88,39,3,207,104,208,112,84,132,191]},"announce":[],"urlList":[]}}